<?xml version="1.0" encoding="UTF-8" standalone="no"?>
<!DOCTYPE svg PUBLIC "-//W3C//DTD SVG 1.1//EN" "http://www.w3.org/Graphics/SVG/1.1/DTD/svg11.dtd">
<svg width="100%" height="100%" viewBox="0 0 1486 321" version="1.1" xmlns="http://www.w3.org/2000/svg" xmlns:xlink="http://www.w3.org/1999/xlink" xml:space="preserve" xmlns:serif="http://www.serif.com/" style="fill-rule:evenodd;clip-rule:evenodd;stroke-linejoin:round;stroke-miterlimit:1.41421;">
    <g id="Artboard1" transform="matrix(0.891383,0,0,0.384552,0,0)">
        <rect x="0" y="0" width="1666.67" height="833.333" style="fill:none;"/>
        <g transform="matrix(1.12185,0,0,2.60043,-32.5337,0)">
            <path d="M158.376,216.397L298.071,152.064C298.071,152.064 312.913,175.331 325.777,197.059C331.721,207.099 340.631,217.94 341.382,223.979C343.506,241.075 326.205,256.522 312.317,266.715C297.42,277.648 270.787,288.542 252.004,289.576C233.708,290.583 214.055,284.202 199.619,272.919C184.014,260.722 158.376,216.397 158.376,216.397Z" style="fill:rgb(153,202,61);"/>
        </g>
        <g transform="matrix(1.23689,0,0,2.86707,-57.2445,-1.85986)">
            <path d="M165.483,80.76C165.483,80.76 210.935,6.062 211.533,6.054C212.069,6.046 248.001,66.757 248.001,66.757C248.001,66.757 220.829,64.261 207.527,66.518C193.774,68.852 165.483,80.76 165.483,80.76Z" style="fill:rgb(0,78,144);"/>
        </g>
        <g transform="matrix(1.29697,0,0,3.00635,-45.2419,-110.382)">
            <path d="M77.594,231.805C77.594,231.805 49.21,279.747 43.264,290.816C42.077,293.026 41.282,296.388 41.918,298.221C42.554,300.053 44.986,301.698 47.079,301.811C58.372,302.42 109.68,301.876 109.68,301.876C109.68,301.876 94.533,283.145 90.163,273.794C84.816,262.351 77.594,231.805 77.594,231.805Z" style="fill:rgb(0,78,144);"/>
        </g>
        <g transform="matrix(1.12256,0,0,2.88454,-36.8359,-87.1267)">
            <path d="M300.351,306.327C300.351,306.327 367.977,307.093 382.422,306.327C384.585,306.212 386.202,303.561 387.017,301.732C387.832,299.902 388.382,297.191 387.311,295.351C381.986,286.208 355.067,246.871 355.067,246.871C355.067,246.871 344.176,268.98 335.944,277.925C326.824,287.834 300.351,306.327 300.351,306.327Z" style="fill:rgb(0,78,144);"/>
        </g>
        <g transform="matrix(1.12185,0,0,2.60043,-32.5337,0)">
            <path d="M153.825,201.373C153.825,201.373 236.232,165.768 254.499,154.585C260.806,150.724 265.961,146.625 263.426,134.276C260.985,122.388 233.969,89.077 198.413,88.915C185.992,88.858 171.413,96.469 162.962,103.948C154.595,111.352 149.441,122.754 147.704,133.79C141.443,173.578 153.825,201.373 153.825,201.373Z" style="fill:rgb(153,202,61);"/>
        </g>
        <g transform="matrix(1.12185,0,0,2.60043,-39.2937,-1.4245)">
            <text x="395.462px" y="245.209px" style="font-family:'TimesNewRomanPS-BoldMT', 'Times New Roman', serif;font-weight:700;font-size:191.667px;fill:rgb(0,78,144);">E</text>
            <text x="523.303px" y="245.209px" style="font-family:'TimesNewRomanPSMT', 'Times New Roman', serif;font-size:166.667px;fill:rgb(0,78,144);">XPECT</text>
            <text x="1051.13px" y="245.209px" style="font-family:'TimesNewRomanPSMT', 'Times New Roman', serif;font-size:166.667px;fill:rgb(153,202,61);">CARE</text>
        </g>
    </g>
</svg>
